<?xml version="1.0" encoding="utf-8"?>
<!-- Generator: Adobe Illustrator 23.0.6, SVG Export Plug-In . SVG Version: 6.00 Build 0)  -->
<svg version="1.1" id="Layer_1" xmlns="http://www.w3.org/2000/svg" xmlns:xlink="http://www.w3.org/1999/xlink" x="0px" y="0px"
	 viewBox="0 0 72 72" style="enable-background:new 0 0 72 72;" xml:space="preserve">
<style type="text/css">
	.st0{fill-rule:evenodd;clip-rule:evenodd;}
	.st1{fill-rule:evenodd;clip-rule:evenodd;fill:#FFFFFF;}
</style>
<title>Twitter</title>
<desc>Created with Sketch.</desc>
<g id="Page-1">
	<g id="Social-Icons---Rounded" transform="translate(-264.000000, -43.000000)">
		<g id="Twitter" transform="translate(264.000000, 43.000000)">
			<path id="Rounded" class="st0" d="M8,72h56c4.4,0,8-3.6,8-8V8c0-4.4-3.6-8-8-8H8C3.6,0,0,3.6,0,8v56C0,68.4,3.6,72,8,72z"/>
			<path class="st1" d="M55.1,25.7c0.6,13.9-9.7,29.3-28,29.3c-5.6,0-10.7-1.6-15.1-4.4c5.2,0.6,10.4-0.8,14.6-4.1
				c-4.3-0.1-7.9-2.9-9.2-6.8c1.5,0.3,3.1,0.2,4.4-0.2c-4.7-1-8-5.2-7.9-9.8c1.3,0.7,2.8,1.2,4.5,1.2c-4.4-2.9-5.6-8.7-3-13.1
				c4.9,6,12.1,9.9,20.3,10.3C34.2,21.9,38.9,16,45.2,16c2.8,0,5.4,1.2,7.2,3.1c2.2-0.4,4.4-1.3,6.3-2.4c-0.7,2.3-2.3,4.2-4.3,5.4
				c2-0.2,3.9-0.8,5.7-1.5C58.7,22.6,57,24.3,55.1,25.7"/>
		</g>
	</g>
</g>
</svg>
